<svg id="Layer_1" data-name="Layer 1" xmlns="http://www.w3.org/2000/svg" xmlns:xlink="http://www.w3.org/1999/xlink" viewBox="0 0 5096.14 967.46"><defs><style>.cls-1{fill:url(#linear-gradient);}.cls-2{fill:#002b66;}</style><linearGradient id="linear-gradient" x1="500" y1="891.55" x2="500" y2="0.31" gradientUnits="userSpaceOnUse"><stop offset="0" stop-color="#002b66"/><stop offset="0.17" stop-color="#002f6f"/><stop offset="0.45" stop-color="#003989"/><stop offset="0.8" stop-color="#004ab2"/><stop offset="1" stop-color="#05c"/></linearGradient></defs><path class="cls-1" d="M987.39,207.9,894.7,47.36a94.08,94.08,0,0,0-81.48-47H627.83a94.07,94.07,0,0,0-81.48,47.05L500,127.63,453.65,47.36a94.07,94.07,0,0,0-81.48-47H186.78A94.08,94.08,0,0,0,105.3,47.36L12.61,207.9a94.08,94.08,0,0,0,0,94.09L105.3,462.54a94.1,94.1,0,0,0,81.48,47h92.7l-46.35,80.27a94.08,94.08,0,0,0,0,94.09L325.82,844.5a94.1,94.1,0,0,0,81.49,47H592.69a94.1,94.1,0,0,0,81.49-47L766.87,684a94.08,94.08,0,0,0,0-94.09l-46.35-80.27h92.7a94.1,94.1,0,0,0,81.48-47L987.39,302A94.08,94.08,0,0,0,987.39,207.9ZM500,382.27ZM192.39,358.75,146,278.47a47.05,47.05,0,0,1,0-47l46.35-80.28a47,47,0,0,1,40.74-23.52h92.69a47.07,47.07,0,0,1,40.75,23.52l46.34,80.28a47,47,0,0,1,0,47l-46.34,80.28a47.07,47.07,0,0,1-40.75,23.52H233.13A47,47,0,0,1,192.39,358.75Zm441,301.68L587.09,740.7a47.06,47.06,0,0,1-40.74,23.53h-92.7a47.06,47.06,0,0,1-40.74-23.53l-46.34-80.27a47,47,0,0,1,0-47l46.34-80.27a47,47,0,0,1,40.74-23.52h92.7a47,47,0,0,1,40.74,23.52l46.34,80.27A47,47,0,0,1,633.43,660.43ZM854,278.47l-46.35,80.28a47,47,0,0,1-40.74,23.52H674.18a47.07,47.07,0,0,1-40.75-23.52l-46.34-80.28a47,47,0,0,1,0-47l46.34-80.28a47.07,47.07,0,0,1,40.75-23.52h92.69a47,47,0,0,1,40.74,23.52L854,231.43A47.05,47.05,0,0,1,854,278.47Z"/><path class="cls-2" d="M1376.54,765.34h-97.07V128.09h97.07Z"/><path class="cls-2" d="M1640.51,773.53q-80.68,0-129.62-59.17T1462,539.68q0-116.71,49.76-176.51T1643,303.38q34,0,59.79,9.21t44.64,24.78a158.14,158.14,0,0,1,31.54,34.81h4.5q-2.06-12.69-4.5-36.65a437.08,437.08,0,0,1-2.46-44.44v-163h96.65V765.34h-75.35l-17.2-61.43h-4.1a159.17,159.17,0,0,1-30.92,35.22q-18.64,16-44.43,25.19T1640.51,773.53ZM1668,695.31q61.44,0,87-35.63t26-106.89v-12.7q0-76.17-24.37-116.72t-89.49-40.54q-52,0-79.24,41.77t-27.24,116.72q0,75,27.24,114.47T1668,695.31Z"/><path class="cls-2" d="M2166.19,303.38q60.6,0,104,25T2337,399.21q23.34,45.87,23.34,109.76v51.6H2057.66q1.64,65.94,35.42,101.57t94.81,35.63q43.41,0,78-8.4a420.37,420.37,0,0,0,71.47-24.77v78.22a313.3,313.3,0,0,1-69.21,23.34q-35.24,7.38-84.37,7.37-66.77,0-117.54-25.8t-79-77.4Q1959,618.73,1959,541.73q0-76.17,25.8-129.41t72.49-81.09Q2103.95,303.38,2166.19,303.38Zm0,72.49q-45.46,0-73.52,29.48t-33,86.42h206q-.42-34-11.26-60t-32.56-41Q2200.17,375.87,2166.19,375.87Z"/><path class="cls-2" d="M2731.18,966.43V774.35q0-16.79,1.23-35.83t3.27-35h-4.91q-18,29.49-51,49.76t-85.39,20.27q-79.86,0-128.8-59.17t-48.94-175.09q0-77,22.52-129.41t63.28-79.45q40.74-27,94.81-27,52,0,84.77,20.27t52,49.76h3.27L2748,312h80.27V966.43Zm-108.12-270.3q41,0,65.32-15.56t35.63-47.3q11.26-31.74,12.08-78.84V539.68q0-76.57-25-116.72t-88.87-40.13q-54.06,0-80.27,41.77t-26.21,116.31q0,75.36,26.41,115.29T2623.06,696.13Z"/><path class="cls-2" d="M3335.9,312V765.34h-75.77l-13.51-60.61h-4.92a128.26,128.26,0,0,1-36.45,38.7,158,158,0,0,1-49.35,22.73,217.53,217.53,0,0,1-57.13,7.37q-50.79,0-87-17.4t-55.69-53.86q-19.47-36.43-19.46-94.19V312h97.06V590.06q0,52.83,21.5,79t67,26.21q43.82,0,69.41-18t36.66-53.24q11.05-35.22,11-86.41V312Z"/><path class="cls-2" d="M3626.08,303.38q86,0,130,38.08t44,118.77V765.34h-68.39L3712.91,701h-3.28q-19.24,24.59-39.72,40.75a137.14,137.14,0,0,1-47.1,24q-26.62,7.79-65.12,7.78-41,0-72.9-14.94a112.74,112.74,0,0,1-50.17-45.67q-18.23-30.72-18.22-77.81,0-70,52.21-105.25T3626.49,491l78.23-2.87V464.33q0-46.69-21.71-66.76t-61.43-20.07a223,223,0,0,0-65.94,9.83,505.65,505.65,0,0,0-62.25,23.76l-31.53-68q33.57-17.6,76-28.67A348.26,348.26,0,0,1,3626.08,303.38Zm78.23,245.31-58.16,2.46q-72.09,2.46-101.16,24.37t-29.07,60.41q0,33.59,20.06,48.94t52.84,15.36q49.95,0,82.72-28.47t32.77-83.34Z"/><path class="cls-2" d="M4061.66,773.53q-80.68,0-129.62-59.17T3883.1,539.68q0-116.71,49.76-176.51t131.26-59.79q34,0,59.79,9.21t44.64,24.78a158.14,158.14,0,0,1,31.54,34.81h4.5q-2.06-12.69-4.5-36.65a437.08,437.08,0,0,1-2.46-44.44v-163h96.65V765.34h-75.36l-17.2-61.43h-4.09a159.17,159.17,0,0,1-30.92,35.22q-18.65,16-44.44,25.19T4061.66,773.53Zm27.44-78.22q61.43,0,87-35.63t26-106.89v-12.7q0-76.17-24.36-116.72t-89.49-40.54q-52,0-79.25,41.77T3981.8,541.32q0,75,27.23,114.47T4089.1,695.31Z"/><path class="cls-2" d="M4636.48,303.38q11.46,0,25,1.23a208.51,208.51,0,0,1,23.35,3.27l-9,90.51a134.05,134.05,0,0,0-21.1-3.89,199.13,199.13,0,0,0-22.32-1.43,140.83,140.83,0,0,0-49.14,8.6,120.32,120.32,0,0,0-41.36,25.59q-18,17-28.26,42.39t-10.24,59V765.34h-97.06V312h75.76l13.11,79.86h4.5a201.29,201.29,0,0,1,33.58-44.23,160,160,0,0,1,46.08-32.15Q4605.35,303.39,4636.48,303.38Z"/><path class="cls-2" d="M4921.34,303.38q86,0,130,38.08t44,118.77V765.34H5027L5008.17,701h-3.28q-19.26,24.59-39.73,40.75a137,137,0,0,1-47.09,24q-26.62,7.79-65.12,7.78-41,0-72.9-14.94a112.74,112.74,0,0,1-50.17-45.67q-18.23-30.72-18.22-77.81,0-70,52.21-105.25T4921.75,491l78.23-2.87V464.33q0-46.69-21.71-66.76t-61.43-20.07a223,223,0,0,0-65.94,9.83,505.65,505.65,0,0,0-62.25,23.76l-31.53-68q33.57-17.6,76-28.67A348.21,348.21,0,0,1,4921.34,303.38Zm78.23,245.31-58.16,2.46q-72.09,2.46-101.16,24.37t-29.07,60.41q0,33.59,20.06,48.94t52.83,15.36q50,0,82.73-28.47t32.77-83.34Z"/></svg>